<svg width="120" height="120" viewBox="0 0 120 120" xmlns="http://www.w3.org/2000/svg" role="img" aria-label="ElectronArt"><!-- Variante de una tinta, para fondos claros, negros o de color. Cambiar `fill` en los dos paths y nada más. --><path d="M0.0 0.0 L98.0 0.0 L120.0 22.0 L120.0 120.0 L0.0 120.0 L0.0 0.0 M6.0 6.0 L94.2 6.0 L114.0 25.8 L114.0 114.0 L6.0 114.0 L6.0 6.0 Z" fill="#0C0E12" fill-rule="evenodd"/><path d="M24.0 36.0 L52.6 36.0 L52.6 46.0 L34.0 46.0 L34.0 57.0 L56.52 57.0 L61.12 36.0 L71.12 36.0 L82.5 88.0 L72.5 88.0 L67.9 67.0 L64.34 67.0 L59.74 88.0 L24.0 88.0 L24.0 36.0 M34.0 67.0 L34.0 78.0 L51.93 78.0 L54.34 67.0 L34.0 67.0 Z" fill="#0C0E12" fill-rule="evenodd"/></svg>